HIERARCHY
ROOT Hips
{
 OFFSET 0.000000 0.000000 0.000000
 CHANNELS 6 Xposition Yposition Zposition Yrotation Xrotation Zrotation
 JOINT Chest
 {
  OFFSET 0.000000 9.585900 0.002600
  CHANNELS 3 Yrotation Xrotation Zrotation
  JOINT Chest2
  {
   OFFSET 0.000000 9.601200 -0.005300
   CHANNELS 3 Yrotation Xrotation Zrotation
   JOINT Chest3
   {
    OFFSET 0.000000 9.561800 0.000000
    CHANNELS 3 Yrotation Xrotation Zrotation
    JOINT Chest4
    {
     OFFSET 0.000000 9.552100 0.000000
     CHANNELS 3 Yrotation Xrotation Zrotation
     JOINT Neck
     {
      OFFSET 0.000000 14.453000 0.000000
      CHANNELS 3 Yrotation Xrotation Zrotation
      JOINT Head
      {
       OFFSET 0.000000 8.936500 -0.011300
       CHANNELS 3 Yrotation Xrotation Zrotation
       End Site
       {
        OFFSET 0.000000 17.073600 -0.006000
       }
      }
     }
     JOINT RightCollar
     {
      OFFSET -2.921100 9.558500 0.000000
      CHANNELS 3 Yrotation Xrotation Zrotation
      JOINT RightShoulder
      {
       OFFSET -13.519700 0.000000 0.000000
       CHANNELS 3 Yrotation Xrotation Zrotation
       JOINT RightElbow
       {
        OFFSET 0.000000 -29.696600 0.000000
        CHANNELS 3 Yrotation Xrotation Zrotation
        JOINT RightWrist
        {
         OFFSET 0.000000 -24.004700 0.000000
         CHANNELS 3 Yrotation Xrotation Zrotation
         End Site
         {
          OFFSET 0.000000 -17.728500 0.000000
         }
        }
       }
      }
     }
     JOINT LeftCollar
     {
      OFFSET 2.921100 9.558500 0.000000
      CHANNELS 3 Yrotation Xrotation Zrotation
      JOINT LeftShoulder
      {
       OFFSET 13.519700 0.000000 0.000000
       CHANNELS 3 Yrotation Xrotation Zrotation
       JOINT LeftElbow
       {
        OFFSET 0.000000 -29.696600 0.000000
        CHANNELS 3 Yrotation Xrotation Zrotation
        JOINT LeftWrist
        {
         OFFSET 0.000000 -24.004700 0.000000
         CHANNELS 3 Yrotation Xrotation Zrotation
         End Site
         {
          OFFSET 0.000000 -17.728500 0.000000
         }
        }
       }
      }
     }
    }
   }
  }
 }
 JOINT RightHip
 {
  OFFSET -7.771700 -0.012900 -0.001300
  CHANNELS 3 Yrotation Xrotation Zrotation
  JOINT RightKnee
  {
   OFFSET 0.000000 -40.869800 0.001200
   CHANNELS 3 Yrotation Xrotation Zrotation
   JOINT RightAnkle
   {
    OFFSET 0.000000 -39.717900 0.002100
    CHANNELS 3 Yrotation Xrotation Zrotation
    JOINT RightToe
    {
     OFFSET 0.000000 -4.965400 11.033500
     CHANNELS 3 Yrotation Xrotation Zrotation
     End Site
     {
      OFFSET 0.000000 -1.423100 5.872300
     }
    }
   }
  }
 }
 JOINT LeftHip
 {
  OFFSET 7.771700 -0.012900 -0.001300
  CHANNELS 3 Yrotation Xrotation Zrotation
  JOINT LeftKnee
  {
   OFFSET 0.000000 -40.869800 0.001200
   CHANNELS 3 Yrotation Xrotation Zrotation
   JOINT LeftAnkle
   {
    OFFSET 0.000000 -39.717900 0.002100
    CHANNELS 3 Yrotation Xrotation Zrotation
    JOINT LeftToe
    {
     OFFSET 0.000000 -4.965400 11.033500
     CHANNELS 3 Yrotation Xrotation Zrotation
     End Site
     {
      OFFSET 0.000000 -1.423100 5.872300
     }
    }
   }
  }
 }
}
MOTION
Frames: 5
Frame Time: 0.008333
-72.468773 55.772453 -36.699195 -174.244170 -12.956307 -0.738872 -0.668966 15.462671 0.757476 -0.086459 1.434808 0.085980 -0.100923 2.477785 0.159668 -0.521164 13.803647 0.837309 0.076484 12.873555 -1.834199 0.502708 -12.156817 -1.926520 -1.909184 0.333363 0.156866 -0.687236 -6.507498 -5.095627 -77.047916 -58.210599 106.230563 -9.864192 15.383901 5.477851 -6.740426 -2.675450 1.455373 2.515781 -9.884521 9.062439 54.935767 -57.403184 -94.012326 7.871622 -5.710709 5.516055 -4.978010 -62.110926 9.686171 -16.303307 85.632111 -20.203698 -10.907106 -15.726508 9.379847 0.029071 0.323962 -0.341762 10.692821 -58.952039 -12.629390 90.635128 70.110168 92.701886 1.926874 -19.302633 -3.882799 -0.154059 0.080269 -0.101503
-72.458156 55.772403 -36.706916 -174.247623 -12.980590 -0.737981 -0.712294 15.420062 0.729596 -0.065616 1.465495 0.093823 -0.101984 2.472526 0.158600 -0.501055 13.833100 0.840587 0.042770 12.773159 -1.902650 0.510722 -12.214452 -1.995058 -1.946578 0.307019 0.149656 -0.716436 -6.479415 -5.080851 -77.039246 -58.194538 106.244608 -9.865360 15.373009 5.465961 -6.748865 -2.702769 1.470660 2.521057 -9.828301 9.033421 54.942618 -57.401084 -94.006129 7.866910 -5.698139 5.512614 -4.994050 -62.082939 9.712028 -16.862771 85.648236 -20.787142 -10.921088 -15.841116 9.591777 0.031745 0.329440 -0.415586 10.654453 -58.941143 -12.617640 90.675956 70.090290 92.748860 1.957299 -19.286892 -3.897466 -0.172399 0.067314 -0.113998
-72.449934 55.771725 -36.714108 -174.261360 -12.998211 -0.729141 -0.712796 15.420824 0.717536 -0.071798 1.454076 0.092375 -0.114171 2.446467 0.154225 -0.507624 13.831064 0.834805 0.040357 12.716439 -1.969203 0.518715 -12.269893 -2.063454 -1.953526 0.322740 0.138090 -0.738464 -6.442952 -5.061628 -76.991862 -58.190891 106.248129 -9.872508 15.339553 5.431833 -6.722524 -2.685269 1.478668 2.516870 -9.771062 8.977805 54.921717 -57.414319 -93.972167 7.866652 -5.685779 5.504908 -5.002723 -62.065800 9.719355 -17.368460 85.668384 -21.308438 -10.924963 -15.952541 9.820199 0.034051 0.329484 -0.496437 10.633175 -58.936075 -12.616081 90.712543 70.067309 92.785310 1.990067 -19.266583 -3.913097 -0.196464 0.052238 -0.122657
-72.443385 55.770275 -36.719971 -174.262394 -13.004657 -0.721448 -0.725524 15.409824 0.704825 -0.066435 1.461938 0.093023 -0.118818 2.433640 0.152391 -0.530708 13.795693 0.825548 0.036103 12.660069 -2.036021 0.526094 -12.324236 -2.130732 -1.957599 0.342315 0.125015 -0.761940 -6.403038 -5.039886 -76.983970 -58.181295 106.248677 -9.868195 15.338704 5.425927 -6.695124 -2.657910 1.482501 2.514890 -9.734876 8.955590 54.909958 -57.410708 -93.956170 7.895511 -5.669653 5.484161 -4.999812 -62.061664 9.699181 -17.970261 85.688894 -21.914897 -10.920195 -16.069595 10.076557 0.036190 0.331624 -0.581771 10.631347 -58.932655 -12.625530 90.728471 70.065502 92.805213 1.999021 -19.262820 -3.912163 -0.202569 0.049263 -0.126125
-72.436766 55.768758 -36.727326 -174.266089 -13.017474 -0.722396 -0.757537 15.345879 0.687721 -0.048021 1.499032 0.096903 -0.111562 2.450833 0.154175 -0.565213 13.726961 0.808550 0.043222 12.636478 -2.097610 0.535151 -12.377591 -2.197211 -1.966968 0.372833 0.092596 -0.769917 -6.335721 -4.996537 -76.972613 -58.164042 106.203532 -9.845229 15.353764 5.459169 -6.655130 -2.575991 1.483015 2.513887 -9.722766 8.948651 54.898233 -57.392607 -93.947716 7.933046 -5.651105 5.455768 -5.008426 -62.047806 9.691399 -18.619235 85.706723 -22.563623 -10.917548 -16.195475 10.354312 0.037298 0.338253 -0.667678 10.615310 -58.924295 -12.615056 90.756256 70.068091 92.845492 2.003541 -19.264975 -3.922186 -0.198894 0.049780 -0.115704
